<?xml version="1.0" encoding="utf-8" standalone="yes"?>
<!DOCTYPE svg PUBLIC "-//W3C//DTD SVG 1.1//EN" "http://www.w3.org/Graphics/SVG/1.1/DTD/svg11.dtd">
<svg width="960" height="768" viewBox="0 0 960 768" style="fill:none;stroke:none;fill-rule:evenodd;clip-rule:evenodd;stroke-linecap:round;stroke-linejoin:round;stroke-miterlimit:1.5;" version="1.1" xmlns="http://www.w3.org/2000/svg" xmlns:xlink="http://www.w3.org/1999/xlink"><style class="text-font-style fontImports" data-font-family="Roboto">@import url('https://fonts.googleapis.com/css2?family=Roboto:wght@400;700&amp;display=block');</style><g id="items" style="isolation: isolate"><g id="blend" style="mix-blend-mode: normal"><g id="g-root-cp_1_g-1_hrimtyg5rkzm-fill" data-item-order="-612854" transform="translate(38, 170)"></g><g id="g-root-cp_2_g-2_hrimtyg5rkzo-fill" data-item-order="-612850" transform="translate(98, 218)"></g><g id="g-root-cp_3_g-3_8vvml2g5rlse-fill" data-item-order="-612846" transform="translate(158, 290)"></g><g id="g-root-cp_4_g-4_dbp4pig5rls0-fill" data-item-order="-612842" transform="translate(218, 362)"></g><g id="g-root-cp_5_g-5_4goljqg5rjey-fill" data-item-order="-612838" transform="translate(278, 434)"></g><g id="g-root-ic_tick_mg2vbqg5aqkl-fill" data-item-order="0" transform="translate(194, 170)"></g><g id="g-root-tx_theiniti_hzmw46g5j6rv-fill" data-item-order="0" transform="translate(674, 146)"><g id="tx_theiniti_hzmw46g5j6rv-fill" stroke="none" fill="#f4f4f4"><g><text style="font: 15px Roboto, sans-serif; white-space: pre;" font-size="15px" font-family="Roboto, sans-serif"><tspan x="12" y="28" dominant-baseline="ideographic">The initial vision of a specialized </tspan><tspan x="12" y="46" dominant-baseline="ideographic">eye care center is conceived.</tspan></text></g></g></g><g id="g-root-tx_speciali_dkfv2ug5j4ec-fill" data-item-order="0" transform="translate(674, 206)"><g id="tx_speciali_dkfv2ug5j4ec-fill" stroke="none" fill="#43dd93"><g><text style="font: bold 20px Roboto, sans-serif; white-space: pre;" font-weight="bold" font-size="20px" font-family="Roboto, sans-serif"><tspan x="12" y="34" dominant-baseline="ideographic">Specialist Collaboration</tspan></text></g></g></g><g id="g-root-ic_plan_4mayhig57xu4-fill" data-item-order="0" transform="translate(314, 242)"></g><g id="g-root-tx_threeded_4osutyg5j571-fill" data-item-order="0" transform="translate(674, 242)"><g id="tx_threeded_4osutyg5j571-fill" stroke="none" fill="#f4f4f4"><g><text style="font: 15px Roboto, sans-serif; white-space: pre;" font-size="15px" font-family="Roboto, sans-serif"><tspan x="12" y="31" dominant-baseline="ideographic">Three dedicated </tspan><tspan x="12" y="49" dominant-baseline="ideographic">ophthalmologists unite to bring </tspan><tspan x="12" y="67" dominant-baseline="ideographic">the dream to life.</tspan></text></g></g></g><g id="g-root-tx_dreamrea_qv9wd2g5j5z6-fill" data-item-order="0" transform="translate(674, 110)"><g id="tx_dreamrea_qv9wd2g5j5z6-fill" stroke="none" fill="#4f91fc"><g><text style="font: bold 20px Roboto, sans-serif; white-space: pre;" font-weight="bold" font-size="20px" font-family="Roboto, sans-serif"><tspan x="12" y="34" dominant-baseline="ideographic">Dream Realization</tspan></text></g></g></g><g id="g-root-ic_moni_4hxjpyg5rll7-fill" data-item-order="0" transform="translate(434, 314)"></g><g id="g-root-tx_subspeci_8zcpig5j5za-fill" data-item-order="0" transform="translate(674, 326)"><g id="tx_subspeci_8zcpig5j5za-fill" stroke="none" fill="#a6da37"><g><text style="font: bold 20px Roboto, sans-serif; white-space: pre;" font-weight="bold" font-size="20px" font-family="Roboto, sans-serif"><tspan x="12" y="34" dominant-baseline="ideographic">Sub-Specialty </tspan><tspan x="12" y="58" dominant-baseline="ideographic">Integration</tspan></text></g></g></g><g id="g-root-tx_thecente_1hjfv9yg5j4zn-fill" data-item-order="0" transform="translate(674, 626)"><g id="tx_thecente_1hjfv9yg5j4zn-fill" stroke="none" fill="#f4f4f4"><g><text style="font: 15px Roboto, sans-serif; white-space: pre;" font-size="15px" font-family="Roboto, sans-serif"><tspan x="12" y="31" dominant-baseline="ideographic">The center provides advanced </tspan><tspan x="12" y="49" dominant-baseline="ideographic">eye care services previously </tspan><tspan x="12" y="67" dominant-baseline="ideographic">unavailable in the region.</tspan></text></g></g></g><g id="g-root-ic_2_18folqug5rk0a-fill" data-item-order="0" transform="translate(554, 386)"></g><g id="g-root-tx_eachspec_8zcpig5j5zb-fill" data-item-order="0" transform="translate(674, 386)"><g id="tx_eachspec_8zcpig5j5zb-fill" stroke="none" fill="#f4f4f4"><g><text style="font: 15px Roboto, sans-serif; white-space: pre;" font-size="15px" font-family="Roboto, sans-serif"><tspan x="12" y="31" dominant-baseline="ideographic">Each specialist contributes their </tspan><tspan x="12" y="49" dominant-baseline="ideographic">unique expertise in cornea, </tspan><tspan x="12" y="67" dominant-baseline="ideographic">glaucoma, and retina.</tspan></text></g></g></g><g id="g-root-tx_journeyt_4goljqg5rjf0-fill" data-item-order="0" transform="translate(332, 38)"><g id="tx_journeyt_4goljqg5rjf0-fill" stroke="none" fill="#f4f4f4"><g><text style="font: 20px Roboto, sans-serif; white-space: pre;" font-size="20px" font-family="Roboto, sans-serif"><tspan x="13.44" y="34" dominant-baseline="ideographic">Journey to Advanced Eye Care</tspan></text></g></g></g><g id="g-root-tx_modernfa_1uu9wk6g5j6kg-fill" data-item-order="0" transform="translate(674, 470)"><g id="tx_modernfa_1uu9wk6g5j6kg-fill" stroke="none" fill="#1ac3fb"><g><text style="font: bold 20px Roboto, sans-serif; white-space: pre;" font-weight="bold" font-size="20px" font-family="Roboto, sans-serif"><tspan x="12" y="34" dominant-baseline="ideographic">Modern Facilities</tspan></text></g></g></g><g id="g-root-tx_1_1q6c55ig5rkst-fill" data-item-order="0" transform="translate(56, 512)"><g id="tx_1_1q6c55ig5rkst-fill" stroke="none" fill="#4f91fc"><g><text style="font: bold 30px Roboto, sans-serif; white-space: pre;" font-weight="bold" font-size="30px" font-family="Roboto, sans-serif"><tspan x="13.39" y="45" dominant-baseline="ideographic">1</tspan></text></g></g></g><g id="g-root-tx_thecente_1uu9wk6g5j6kh-fill" data-item-order="0" transform="translate(674, 506)"><g id="tx_thecente_1uu9wk6g5j6kh-fill" stroke="none" fill="#f4f4f4"><g><text style="font: 15px Roboto, sans-serif; white-space: pre;" font-size="15px" font-family="Roboto, sans-serif"><tspan x="12" y="31" dominant-baseline="ideographic">The center is equipped with </tspan><tspan x="12" y="49" dominant-baseline="ideographic">state-of-the-art technology and </tspan><tspan x="12" y="67" dominant-baseline="ideographic">facilities.</tspan></text></g></g></g><g id="g-root-tx_2_1lqin12g5rll2-fill" data-item-order="0" transform="translate(116, 536)"><g id="tx_2_1lqin12g5rll2-fill" stroke="none" fill="#43dd93"><g><text style="font: bold 30px Roboto, sans-serif; white-space: pre;" font-weight="bold" font-size="30px" font-family="Roboto, sans-serif"><tspan x="13.39" y="45" dominant-baseline="ideographic">2</tspan></text></g></g></g><g id="g-root-tx_3_1cuvms6g5rmdr-fill" data-item-order="0" transform="translate(176, 560)"><g id="tx_3_1cuvms6g5rmdr-fill" stroke="none" fill="#a6da37"><g><text style="font: bold 30px Roboto, sans-serif; white-space: pre;" font-weight="bold" font-size="30px" font-family="Roboto, sans-serif"><tspan x="13.39" y="45" dominant-baseline="ideographic">3</tspan></text></g></g></g><g id="g-root-tx_4_1hap4wmg5rmdc-fill" data-item-order="0" transform="translate(236, 584)"><g id="tx_4_1hap4wmg5rmdc-fill" stroke="none" fill="#1ac3fb"><g><text style="font: bold 30px Roboto, sans-serif; white-space: pre;" font-weight="bold" font-size="30px" font-family="Roboto, sans-serif"><tspan x="13.39" y="45" dominant-baseline="ideographic">4</tspan></text></g></g></g><g id="g-root-tx_enhanced_1lz9deeg5j47e-fill" data-item-order="0" transform="translate(674, 590)"><g id="tx_enhanced_1lz9deeg5j47e-fill" stroke="none" fill="#ffe711"><g><text style="font: bold 20px Roboto, sans-serif; white-space: pre;" font-weight="bold" font-size="20px" font-family="Roboto, sans-serif"><tspan x="12" y="34" dominant-baseline="ideographic">Enhanced Eye Care</tspan></text></g></g></g><g id="g-root-tx_5_18folqug5rk09-fill" data-item-order="0" transform="translate(296, 608)"><g id="tx_5_18folqug5rk09-fill" stroke="none" fill="#ffe711"><g><text style="font: bold 30px Roboto, sans-serif; white-space: pre;" font-weight="bold" font-size="30px" font-family="Roboto, sans-serif"><tspan x="13.39" y="45" dominant-baseline="ideographic">5</tspan></text></g></g></g><g id="g-root-ic_pers_140hnvag5gc21-fill" data-item-order="0" transform="translate(74, 110)"></g><g id="g-root-cp_1_g-1_hrimtyg5rkzm-stroke" data-item-order="-612854" transform="translate(38, 170)"><g id="cp_1_g-1_hrimtyg5rkzm-stroke" fill="none" stroke-linecap="round" stroke-linejoin="round" stroke-miterlimit="4" stroke="#4f91fc" stroke-width="2"><g><path d="M 70 58L 70 418L 10 394L 10 34L 70 58ZM 130 34L 130 106L 70 130L 70 58L 130 34ZM 130 34L 70 58L 10 34L 70 10L 130 34Z"></path></g></g></g><g id="g-root-cp_2_g-2_hrimtyg5rkzo-stroke" data-item-order="-612850" transform="translate(98, 218)"><g id="cp_2_g-2_hrimtyg5rkzo-stroke" fill="none" stroke-linecap="round" stroke-linejoin="round" stroke-miterlimit="4" stroke="#43dd93" stroke-width="2"><g><path d="M 190 58L 190 130L 70 178L 70 106L 190 58ZM 190 58L 70 106L 10 82L 70 58L 70 10L 190 58ZM 70 106L 70 394L 10 370L 10 82L 70 106Z"></path></g></g></g><g id="g-root-cp_3_g-3_8vvml2g5rlse-stroke" data-item-order="-612846" transform="translate(158, 290)"><g id="cp_3_g-3_8vvml2g5rlse-stroke" fill="none" stroke-linecap="round" stroke-linejoin="round" stroke-miterlimit="4" stroke="#a6da37" stroke-width="2"><g><path d="M 250 58L 250 130L 70 202L 70 130L 250 58ZM 250 58L 70 130L 10 106L 130 58L 130 10L 250 58ZM 70 130L 70 346L 10 322L 10 106L 70 130Z"></path></g></g></g><g id="g-root-cp_4_g-4_dbp4pig5rls0-stroke" data-item-order="-612842" transform="translate(218, 362)"><g id="cp_4_g-4_dbp4pig5rls0-stroke" fill="none" stroke-linecap="round" stroke-linejoin="round" stroke-miterlimit="4" stroke="#1ac3fb" stroke-width="2"><g><path d="M 70 154L 70 298L 10 274L 10 130L 70 154ZM 310 58L 310 130L 70 226L 70 154L 310 58ZM 310 58L 70 154L 10 130L 190 58L 190 10L 310 58Z"></path></g></g></g><g id="g-root-cp_5_g-5_4goljqg5rjey-stroke" data-item-order="-612838" transform="translate(278, 434)"><g id="cp_5_g-5_4goljqg5rjey-stroke" fill="none" stroke-linecap="round" stroke-linejoin="round" stroke-miterlimit="4" stroke="#ffe711" stroke-width="2"><g><path d="M 70 178L 70 250L 10 226L 10 154L 70 178ZM 370 58L 70 178L 10 154L 250 58L 250 10L 370 58ZM 370 58L 370 130L 70 250L 70 178L 370 58Z"></path></g></g></g><g id="g-root-ic_tick_mg2vbqg5aqkl-stroke" data-item-order="0" transform="translate(194, 170)"><g id="ic_tick_mg2vbqg5aqkl-stroke" fill="none" stroke-linecap="round" stroke-linejoin="round" stroke-miterlimit="4" stroke="#43dd93" stroke-width="2"><g><path d="M 41 16C 41 18.761425 43.238575 21 46 21C 48.761425 21 51 18.761425 51 16C 51 13.238577 48.761425 11 46 11C 43.238575 11 41 13.238577 41 16M 15 16C 15 18.761425 17.238577 21 20 21C 22.761425 21 25 18.761425 25 16C 25 13.238577 22.761425 11 20 11C 17.238577 11 15 13.238577 15 16M 47 54L 47 44M 28 38C 28 39.656853 29.343145 41 31 41C 38.900002 41 39.52 33.919998 41 31.780001L 41 54C 41 55.656857 42.343147 57 44 57C 45.656857 57 47 55.656857 47 54C 47 55.656857 48.343147 57 50 57C 51.656857 57 53 55.656857 53 54L 53 43L 55 43C 56.104568 43 57 42.104568 57 41L 57 31C 57 27.686293 54.313709 25 51 25L 43 25C 38.639023 25.000111 34.905594 28.126751 34.139999 32.419998C 33.906422 33.956047 32.552181 35.068764 31 35C 29.343145 35 28 36.343147 28 38ZM 53 43L 53 32M 11 33L 11 31C 11 27.686293 13.686292 25 17 25L 24.119999 25C 25.309729 25.001932 26.438574 24.474159 27.200001 23.560001L 31.200001 18.68M 25 41L 12 41C 11.447716 41 11 40.552284 11 40L 11 38C 11 37.447716 11.447716 37 12 37L 24 37M 15 41L 15 57M 36 19L 32 19C 31.447716 19 31 18.552284 31 18L 31 12C 31 11.447716 31.447716 11 32 11L 36 11C 36.552284 11 37 11.447716 37 12L 37 18C 37 18.552284 36.552284 19 36 19Z"></path></g></g></g><g id="g-root-tx_theiniti_hzmw46g5j6rv-stroke" data-item-order="0" transform="translate(674, 146)"></g><g id="g-root-tx_speciali_dkfv2ug5j4ec-stroke" data-item-order="0" transform="translate(674, 206)"></g><g id="g-root-ic_plan_4mayhig57xu4-stroke" data-item-order="0" transform="translate(314, 242)"><g id="ic_plan_4mayhig57xu4-stroke" fill="none" stroke-linecap="round" stroke-linejoin="round" stroke-miterlimit="4" stroke="#a6da37" stroke-width="2"><g><path d="M 22 31L 18 31L 18 12C 18 11.447716 18.447716 11 19 11L 39 11C 39.552284 11 40 11.447716 40 12L 40 31L 29 31M 34 31L 34 37L 34 37C 37.313709 37 40 39.686295 40 43L 40 44L 34 44L 34 56C 34 56.552284 33.552284 57 33 57L 12 57C 11.447716 57 11 56.552284 11 56L 11 32C 11 31.447716 11.447716 31 12 31L 18 31M 34 48L 56 48C 56.552284 48 57 47.552284 57 47L 57 34L 57 34C 53.13401 34 50 30.865993 50 27L 56 27C 56.552284 27 57 26.552284 57 26L 57 20C 57 19.447716 56.552284 19 56 19L 40 19M 11 45L 21 45L 21 57L 21 57L 12 57C 11.447716 57 11 56.552284 11 56L 11 45L 11 45ZM 11 49L 21 49M 11 53L 21 53"></path></g></g></g><g id="g-root-tx_threeded_4osutyg5j571-stroke" data-item-order="0" transform="translate(674, 242)"></g><g id="g-root-tx_dreamrea_qv9wd2g5j5z6-stroke" data-item-order="0" transform="translate(674, 110)"></g><g id="g-root-ic_moni_4hxjpyg5rll7-stroke" data-item-order="0" transform="translate(434, 314)"><g id="ic_moni_4hxjpyg5rll7-stroke" fill="none" stroke-linecap="round" stroke-linejoin="round" stroke-miterlimit="4" stroke="#1ac3fb" stroke-width="2"><g><path d="M 13 11L 37 11C 37 11 39 11 39 13L 39 29C 39 29 39 31 37 31L 13 31C 13 31 11 31 11 29L 11 13C 11 13 11 11 13 11M 25 31L 25 37M 18 37L 32 37M 11 26L 39 26M 45 28L 45 32M 47 30L 43 30M 38 35L 38 39M 40 37L 36 37M 42.419998 50C 44 47 46 44 46 44L 46 37C 46 36.447716 46.447716 36 47 36L 50 36C 50.552284 36 51 36.447716 51 37L 51 44C 51 44.18 56.740002 54 56.740002 54C 57.096207 54.61694 57.097363 55.376785 56.743031 55.994804C 56.388699 56.612823 55.732376 56.995716 55.02 57L 42.48 57M 42.419998 50L 54.400002 50M 34 54.5C 34 55.880714 35.119289 57 36.5 57C 37.880714 57 39 55.880714 39 54.5L 39 44L 34 44Z"></path></g></g></g><g id="g-root-tx_subspeci_8zcpig5j5za-stroke" data-item-order="0" transform="translate(674, 326)"></g><g id="g-root-tx_thecente_1hjfv9yg5j4zn-stroke" data-item-order="0" transform="translate(674, 626)"></g><g id="g-root-ic_2_18folqug5rk0a-stroke" data-item-order="0" transform="translate(554, 386)"><g id="ic_2_18folqug5rk0a-stroke" fill="none" stroke-linecap="round" stroke-linejoin="round" stroke-miterlimit="4" stroke="#ffe711" stroke-width="2"><g><path d="M 11 57L 11 55C 11.001667 51.663197 13.074248 48.677883 16.200001 47.509998L 26.462 44.063999M 10 10M 41.545998 44.063999L 51.799999 47.509998C 54.925751 48.677883 56.998333 51.663197 57 55L 57 57M 31 36C 31.745369 36.666351 32.716484 37.023903 33.716 37L 34.284 37C 35.283577 37.024307 36.254841 36.666702 37 36M 32 28C 31.568378 27.323767 30.799957 26.939558 30 27C 29.200041 26.939558 28.43162 27.323767 28 28M 40 28C 39.568378 27.323767 38.799957 26.939558 38 27C 37.200043 26.939558 36.431618 27.323767 36 28M 21.42 31.084C 21.050694 33.990547 19.56086 36.637939 17.268 38.461998C 16.972694 38.629898 16.782814 38.936222 16.763815 39.275391C 16.744816 39.614555 16.899294 39.94017 17.174 40.139999C 18.833767 41.431679 20.898815 42.090965 23 42M 46.580002 31.084C 46.949306 33.990547 48.439137 36.637939 50.731998 38.461998C 51.027306 38.629898 51.217186 38.936222 51.236187 39.275391C 51.255184 39.614555 51.100708 39.94017 50.826 40.139999C 49.166237 41.431679 47.101189 42.090965 45.000004 42M 21.656 22.970001C 24.318001 22.897999 29.742001 23.751999 34 18.630001C 38.234001 23.723999 43.686001 22.928001 46.344002 22.986M 43 44.549999C 42.868 48.692001 36.742001 54.537998 34.678001 56.394001C 34.297379 56.737518 33.71862 56.737518 33.337997 56.394001C 31.274 54.537998 25.147999 48.692001 25.015999 44.549999M 24.278 14.466C 21.181999 17.927999 21.416 23.26 22.038 27C 20.296 27.874001 20.838001 31.799999 22.992001 32.778C 23.597895 33.053925 24.026766 33.613258 24.136 34.27C 25.02 39.557999 31.226 43 34 43C 36.774002 43 42.98 39.557999 43.863998 34.27C 43.973232 33.613258 44.402103 33.053925 45.007999 32.778C 47.164001 31.796 47.703999 27.874001 45.962002 27C 46.584 23.26 46.818001 17.927999 43.722 14.466M 10 10M 32 13L 36 13M 30 11L 26 11C 24.895432 11 24 11.895431 24 13C 24 15.209139 25.790861 17 28 17C 30.209139 17 32 15.209139 32 13C 32 11.895431 31.10457 11 30 11ZM 10 10M 40 17L 40 17C 37.790863 17 36 15.209139 36 13L 36 13C 36 11.895431 36.895432 11 38 11L 42 11C 43.104568 11 44 11.895431 44 13L 44 13C 44 15.209139 42.209141 17 40 17Z"></path></g></g></g><g id="g-root-tx_eachspec_8zcpig5j5zb-stroke" data-item-order="0" transform="translate(674, 386)"></g><g id="g-root-tx_journeyt_4goljqg5rjf0-stroke" data-item-order="0" transform="translate(332, 38)"></g><g id="g-root-tx_modernfa_1uu9wk6g5j6kg-stroke" data-item-order="0" transform="translate(674, 470)"></g><g id="g-root-tx_1_1q6c55ig5rkst-stroke" data-item-order="0" transform="translate(56, 512)"></g><g id="g-root-tx_thecente_1uu9wk6g5j6kh-stroke" data-item-order="0" transform="translate(674, 506)"></g><g id="g-root-tx_2_1lqin12g5rll2-stroke" data-item-order="0" transform="translate(116, 536)"></g><g id="g-root-tx_3_1cuvms6g5rmdr-stroke" data-item-order="0" transform="translate(176, 560)"></g><g id="g-root-tx_4_1hap4wmg5rmdc-stroke" data-item-order="0" transform="translate(236, 584)"></g><g id="g-root-tx_enhanced_1lz9deeg5j47e-stroke" data-item-order="0" transform="translate(674, 590)"></g><g id="g-root-tx_5_18folqug5rk09-stroke" data-item-order="0" transform="translate(296, 608)"></g><g id="g-root-ic_pers_140hnvag5gc21-stroke" data-item-order="0" transform="translate(74, 110)"><g id="ic_pers_140hnvag5gc21-stroke" fill="none" stroke-linecap="round" stroke-linejoin="round" stroke-miterlimit="4" stroke="#4f91fc" stroke-width="2"><g><path d="M 52.800201 11.600068C 54.800201 11.600068 56.4002 13.20006 56.4002 15.20006L 56.4002 41.200001C 56.4002 39.200001 54.800201 37.599998 52.800201 37.599998L 51.200199 37.599998C 50.000198 37.599998 49.200199 36.799999 49.200199 35.599998L 49.200199 13.60006C 49.200199 12.40006 50.000198 11.600068 51.200199 11.600068L 52.800201 11.600068ZM 56.4002 41.200001C 56.4002 43.200001 54.800201 44.799999 52.800201 44.799999L 37.4002 44.799999M 10 10M 49.200199 15.20008L 28.400141 15.20008C 27.20014 15.20008 26.400141 16.00008 26.400141 17.200081L 26.400141 18.600079M 24.199741 45.400002C 19.79974 45.400002 16.19976 41.799999 15.99976 37.400002L 15.99976 33.400002C 16.19976 28.999941 19.79974 25.39994 24.199741 25.39994C 28.799761 25.39994 32.399799 28.999941 32.399799 33.599998L 32.399799 37.200001C 32.399799 41.799999 28.79974 45.400002 24.199741 45.400002ZM 24.199959 29.39994L 24.199959 23.39994M 13.1997 35.200001L 35.199799 35.200001M 36.999802 56.400002C 35.199799 51.200001 30.1998 47.400002 24.39986 47.400002C 18.599861 47.400002 13.39986 51.200001 11.599854 56.400002"></path></g></g></g></g></g><path id="w143mk9yddokxv" d="M65.283 12.757a.35.35 0 0 0 .584.157l5.203-5.141-6.183 3.523.396 1.461zm-2.216-11.7a.35.35 0 0 0-.522.305v3.111l3.276-1.868-2.754-1.548zm3.728 2.105l-4.25 2.421v2.445l6.391-3.644-2.141-1.222zm4.708 3.303a.35.35 0 0 0 0-.609l-1.592-.9-7.365 4.199v1.782a.35.35 0 0 0 .523.305l8.435-4.777z M44.542 2.513c0-.433.355-.783.792-.783s.792.35.792.783-.355.783-.792.783-.792-.35-.792-.783zm59.171 0c0-.433.355-.783.792-.783s.792.35.792.783-.355.783-.792.783-.792-.35-.792-.783zm-85.951 7.636h-1.27v-.487c-.276.201-.864.609-1.881.609-1.202 0-2.274-.794-2.137-2.078.118-1.106 1.153-1.584 1.848-1.727l2.17-.345c0-.539-.29-.956-1.064-1.006s-1.21.305-1.571 1.017l-1.124-.605c1.218-2.631 5.029-1.764 5.029.414v4.207zm-1.27-2.86c.006.396-.062 1.112-.819 1.59-.587.37-1.841.299-1.903-.395-.049-.555.461-.791.906-.898l1.816-.297zm72.662 2.86h-1.27v-.487c-.276.201-.864.609-1.881.609-1.202 0-2.274-.794-2.137-2.078.118-1.106 1.153-1.584 1.848-1.727l2.17-.345c0-.539-.29-.956-1.064-1.006s-1.21.305-1.571 1.017l-1.124-.605c1.218-2.631 5.029-1.764 5.029.414v4.207zm-1.27-2.86c.006.396-.062 1.112-.82 1.59-.587.37-1.841.299-1.903-.395-.049-.555.461-.791.906-.898l1.816-.297zM99.096 10.149H97.85v-8.45h1.246v4.895l2.68-2.559h1.738l-2.633 2.535 2.715 3.578h-1.556l-2.077-2.707-.867.844v1.863zm6.053-6.114h-1.255v6.113h1.255V4.035zm-59.2 0h-1.255v6.113h1.255V4.035zm5.584 6.113V1.697h1.255v2.695c.361-.346 1-.485 1.47-.485 1.452 0 2.477 1.082 2.457 2.448v3.792h-1.27v-3.68c0-.408-.214-1.339-1.315-1.339-.968 0-1.342.756-1.342 1.339v3.681h-1.255zm-4.76-4.894V4.039h.621a.45.45 0 0 0 .45-.45v-.855h1.251v1.305h1.309v1.215h-1.309v3.109c0 .293.105.664.648.664.365 0 .531-.035.736-.07v1.137s-.361.113-.857.113c-1.398 0-1.777-1.051-1.777-1.788V5.254h-1.071zM36.528 4.039h-1.394l2.191 6.106h1.125l1.234-3.918 1.238 3.918h1.129l2.188-6.106h-1.383l-1.359 3.93-1.256-3.93h-1.124l-1.242 3.957-1.348-3.957zM26.212 7.141c-.02 1.566 1.187 3.129 3.223 3.129 1.566 0 2.383-.918 2.734-1.719L31.172 8c-.315.399-.801 1.094-1.738 1.094-1.145 0-1.825-.781-1.891-1.52h4.625c.074-.284.148-.995-.03-1.559-.336-1.064-1.221-2.102-2.839-2.102s-3.088 1.152-3.088 3.227zm1.363-.75h3.348c-.055-.43-.566-1.301-1.623-1.301a1.79 1.79 0 0 0-1.725 1.301zm-8.758.75c.038 1.758 1.277 3.133 3.145 3.133 1.074 0 1.723-.477 1.961-.672v.547h1.242V1.703h-1.258v2.888c-.414-.36-1.062-.68-1.93-.68-1.91 0-3.198 1.473-3.16 3.23zm1.309-.08c0 1.119.723 1.978 1.836 1.978a1.88 1.88 0 0 0 1.94-1.904c0-1.371-1.011-1.99-1.972-1.99s-1.805.798-1.805 1.916zm76.683-.028C96.771 5.275 95.532 3.9 93.664 3.9c-1.074 0-1.723.477-1.961.672v-.547h-1.242v8.22h1.258V9.583c.414.36 1.063.68 1.93.68 1.91 0 3.198-1.473 3.16-3.23zm-1.309.08c0-1.119-.723-1.978-1.836-1.978a1.88 1.88 0 0 0-1.94 1.904c0 1.371 1.011 1.99 1.972 1.99S95.5 8.231 95.5 7.113zM106.441 10.173V4.036h1.254v.382c.361-.346 1-.485 1.47-.485 1.452 0 2.477 1.082 2.457 2.448v3.792h-1.27V6.492c0-.408-.214-1.339-1.315-1.339-.969 0-1.342.756-1.342 1.339v3.681h-1.254zm-30.383-.021V1.824h1.084l4.215 5.777V1.824h1.32v8.328h-1.094l-4.207-5.796v5.796h-1.319zM5.24 10.149H4V2.377h1.014l2.664 3.597 2.654-3.592h1.03v7.766h-1.256V4.762L7.678 8.068 5.24 4.742v5.407z" transform="translate(20, 734)" fill="#ababab88" stroke="none"></path></svg>